<svg id="champion_inverted" xmlns="http://www.w3.org/2000/svg" width="9.37" height="10.903" viewBox="0 0 9.37 10.903">
  <g id="Group_481" data-name="Group 481" transform="translate(0 0)">
    <path id="Helmet" d="M32.965,23.781c0-3-4.016-4.089-4.016-4.089s-4.016,1.083-4.016,4.089.007,3.39-.669,4.089c0,0,.962,2.726,3.346,2.726,0,0-.669-.671-.669-4.089,0,0-1.338-.291-1.338-2.726a3.533,3.533,0,0,1,2.677,1.363v2.726l.669.681.669-.681V25.144A3.328,3.328,0,0,1,32.3,23.781c0,2.4-1.338,2.726-1.338,2.726,0,3.4-.669,4.089-.669,4.089,2.384,0,3.346-2.726,3.346-2.726C32.905,27.117,32.965,26.784,32.965,23.781Z" transform="translate(-24.265 -19.692)" fill="#bdc3c7" fill-rule="evenodd"/>
    <path id="Path_617" data-name="Path 617" d="M49.7,35.082" transform="translate(-45.364 -32.46)" fill="#bdc3c7" stroke="#000" stroke-width="0"/>
  </g>
</svg>
