<svg xmlns="http://www.w3.org/2000/svg" xmlns:xlink="http://www.w3.org/1999/xlink" width="38.09" height="38.12" viewBox="0 0 38.09 38.12">
  <defs>
    <linearGradient id="linear-gradient" x1="0.882" y1="0.821" x2="0.121" y2="0.181" gradientUnits="objectBoundingBox">
      <stop offset="0" stop-color="#ffc640"/>
      <stop offset="0.149" stop-color="#cb8301"/>
      <stop offset="0.246" stop-color="#c98100"/>
      <stop offset="0.357" stop-color="#ebae19"/>
      <stop offset="0.381" stop-color="#f3b920"/>
      <stop offset="0.47" stop-color="#f6ca4c"/>
      <stop offset="0.483" stop-color="#f7d260"/>
      <stop offset="0.51" stop-color="#fae187"/>
      <stop offset="0.535" stop-color="#fdeca3"/>
      <stop offset="0.557" stop-color="#fef3b3"/>
      <stop offset="0.573" stop-color="#fff6ba"/>
      <stop offset="0.633" stop-color="#fdf3b5"/>
      <stop offset="0.698" stop-color="#faeda8"/>
      <stop offset="0.765" stop-color="#f6e393"/>
      <stop offset="0.79" stop-color="#f5e08c"/>
      <stop offset="0.826" stop-color="#f5d978"/>
      <stop offset="0.868" stop-color="#f5ce59"/>
      <stop offset="0.908" stop-color="#f5c236"/>
      <stop offset="1" stop-color="#e09f12"/>
    </linearGradient>
    <linearGradient id="linear-gradient-2" x1="0.5" y1="1.016" x2="0.5" y2="-0.022" gradientUnits="objectBoundingBox">
      <stop offset="0.008" stop-color="#f5c238"/>
      <stop offset="0.029" stop-color="#e7b22c"/>
      <stop offset="0.079" stop-color="#cc9014"/>
      <stop offset="0.121" stop-color="#bb7c06"/>
      <stop offset="0.149" stop-color="#b57501"/>
      <stop offset="0.246" stop-color="#c98100"/>
      <stop offset="0.357" stop-color="#ebae19"/>
      <stop offset="0.381" stop-color="#f3b920"/>
      <stop offset="0.47" stop-color="#f6ca4c"/>
      <stop offset="0.483" stop-color="#f7d260"/>
      <stop offset="0.51" stop-color="#fae187"/>
      <stop offset="0.535" stop-color="#fdeca3"/>
      <stop offset="0.557" stop-color="#fef3b3"/>
      <stop offset="0.573" stop-color="#fff6ba"/>
      <stop offset="0.633" stop-color="#fdf3b5"/>
      <stop offset="0.698" stop-color="#faeda8"/>
      <stop offset="0.765" stop-color="#f6e393"/>
      <stop offset="0.79" stop-color="#f5e08c"/>
      <stop offset="0.826" stop-color="#f5d978"/>
      <stop offset="0.868" stop-color="#f5ce59"/>
      <stop offset="0.908" stop-color="#f5c236"/>
      <stop offset="0.958" stop-color="#f9dc7a"/>
      <stop offset="1" stop-color="#fdf2b2"/>
    </linearGradient>
    <linearGradient id="linear-gradient-3" x1="0.841" y1="0.883" x2="0.156" y2="0.116" gradientUnits="objectBoundingBox">
      <stop offset="0" stop-color="#cb8301"/>
      <stop offset="0.246" stop-color="#c98100"/>
      <stop offset="0.474" stop-color="#e3ac2d"/>
      <stop offset="0.616" stop-color="#f6ca4c"/>
      <stop offset="0.784" stop-color="#fae288"/>
      <stop offset="0.935" stop-color="#fff6ba"/>
    </linearGradient>
    <linearGradient id="linear-gradient-4" x1="0.5" y1="-0.003" x2="0.5" y2="1.001" gradientUnits="objectBoundingBox">
      <stop offset="0" stop-color="#ffc640"/>
      <stop offset="0.078" stop-color="#fef4b6"/>
      <stop offset="0.088" stop-color="#f8e7a2"/>
      <stop offset="0.109" stop-color="#eac870"/>
      <stop offset="0.138" stop-color="#d3961f"/>
      <stop offset="0.149" stop-color="#cb8301"/>
      <stop offset="0.246" stop-color="#c98100"/>
      <stop offset="0.326" stop-color="#ebae19"/>
      <stop offset="0.343" stop-color="#f3b920"/>
      <stop offset="0.443" stop-color="#f6ca4c"/>
      <stop offset="0.456" stop-color="#f7d260"/>
      <stop offset="0.485" stop-color="#fae187"/>
      <stop offset="0.511" stop-color="#fdeca3"/>
      <stop offset="0.534" stop-color="#fef3b3"/>
      <stop offset="0.551" stop-color="#fff6ba"/>
      <stop offset="0.576" stop-color="#fdf3b5"/>
      <stop offset="0.603" stop-color="#faeda8"/>
      <stop offset="0.63" stop-color="#f6e393"/>
      <stop offset="0.637" stop-color="#f5e08b"/>
      <stop offset="0.679" stop-color="#f5d366"/>
      <stop offset="0.717" stop-color="#f5c94b"/>
      <stop offset="0.752" stop-color="#f5c43b"/>
      <stop offset="0.778" stop-color="#f5c236"/>
      <stop offset="0.796" stop-color="#ecb42a"/>
      <stop offset="0.868" stop-color="#ca8200"/>
      <stop offset="0.877" stop-color="#d09016"/>
      <stop offset="0.903" stop-color="#e0b34e"/>
      <stop offset="0.927" stop-color="#edcf7a"/>
      <stop offset="0.948" stop-color="#f6e39a"/>
      <stop offset="0.966" stop-color="#fbefae"/>
      <stop offset="0.978" stop-color="#fef4b5"/>
    </linearGradient>
  </defs>
  <g id="Group_562" data-name="Group 562" transform="translate(-818.729 -1405.286)">
    <path id="Path_678" data-name="Path 678" d="M872.347,1454.591l.052-.08.064-.1.043-.069.07-.113.036-.059.075-.125.029-.049.08-.136.022-.038.084-.147.016-.029.087-.158.011-.02c.031-.056.061-.112.091-.169l.006-.01.093-.179v0q.335-.652.612-1.331a16.848,16.848,0,0,0,.951-3.207h0a17.087,17.087,0,0,0,.158-5.437c-.055-.406-.123-.806-.2-1.193l.005.006a16.863,16.863,0,0,0-2.452-5.92,17.063,17.063,0,0,0-2.024-2.513h0l-.038-.039-.031-.032-.133-.134-.005-.005a17.094,17.094,0,0,0-2.249-1.874h0q-.236-.165-.478-.322l-.022-.014-.146-.093-.047-.03-.121-.075-.073-.045-.1-.058-.1-.059-.071-.042-.126-.073-.047-.027-.151-.085-.023-.013q-.527-.291-1.074-.544h0a16.829,16.829,0,0,0-3.072-1.076l-.143-.034-.064-.015-.14-.032-.065-.014-.138-.03-.068-.014-.135-.027-.073-.014-.13-.025-.08-.014-.124-.022-.088-.015-.115-.019-.1-.015-.105-.016-.109-.016-.094-.013-.122-.016-.08-.01-.137-.016-.066-.008-.151-.016-.051-.005-.168-.016-.034,0-.185-.015h-.017q-.31-.023-.621-.035h0q-.242-.009-.484-.012H857.9l-.152,0h-.026a17.15,17.15,0,0,0-2,.161l-.123.017-.092.014-.112.017-.1.016-.1.018-.105.019-.1.018-.111.021-.092.018-.116.023-.087.018-.121.026-.082.018-.125.029-.077.018-.128.031-.074.018-.13.033-.072.019-.131.035-.07.019-.132.037-.07.02-.13.038-.071.021-.128.04-.073.023-.125.04-.076.025-.12.04-.081.027-.116.041a16.885,16.885,0,0,0-2.966,1.382h0l-.022.013-.079.047-.114.069-.056.034-.139.087-.028.018a17.042,17.042,0,0,0-2.007,1.484l-.014.012-.147.128h0q-.3.262-.581.536l-.008.007-.133.13-.034.034-.1.1-.06.061-.077.08-.085.089-.051.053-.109.117-.025.027q-.408.443-.784.914l-.1.133-.03.038a17.009,17.009,0,0,0-1.28,1.895l-.007.012-.091.159-.023.04-.075.134-.035.064-.06.112-.046.086-.01.02h0a16.875,16.875,0,0,0-1.241,3.046l-.026.089-.032.113-.025.089-.031.112-.024.091-.029.112-.023.091-.028.114-.021.088-.027.117-.02.086-.027.121-.018.082-.026.127-.015.076q-.013.067-.026.134l-.013.069-.026.142-.011.061c-.009.05-.017.1-.026.151l-.008.052q-.013.08-.025.161l-.006.043q-.013.086-.025.171l0,.032q-.013.091-.024.182l0,.021q-.012.1-.023.194v.009q-.023.207-.041.413h0c-.021.236-.037.473-.048.71h0q0,.089-.007.178l0,.059c0,.039,0,.078,0,.117s0,.081,0,.122c0,.018,0,.036,0,.054a17.335,17.335,0,0,0,.066,1.781c0,.04.007.08.011.12s.006.064.01.1l.011.107c0,.037.008.073.012.109l.011.094c0,.041.01.081.015.122l.011.082c.006.044.012.089.018.133l.01.07c.007.048.014.1.021.144l.009.06q.012.077.025.153l.008.05c.009.054.018.108.028.162l.007.041c.01.057.021.113.032.17l.006.033q.017.088.035.176l.006.027c.013.06.025.121.038.181l0,.022q.02.092.042.184l0,.019c.015.062.029.124.044.186l0,.017q.023.093.047.187l0,.016q.024.093.049.185l.005.018q.025.091.051.182l.006.021q.026.091.053.182a16.843,16.843,0,0,0,1.121,2.805l0,.005.094.182h0q.232.443.489.872l.005.009.1.16.022.035.084.133.039.061.068.106.057.088.051.078.077.114.034.05.1.141.015.022q.225.321.465.632h0l.128.164h0a17.1,17.1,0,0,0,1.691,1.842l.023.022.12.111.052.048.093.084.078.07.012.011h0a16.96,16.96,0,0,0,5.624,3.307l.02.007.176.06.024.008.172.057.028.009.17.054.03.009.169.051.032.009.169.049.033.009.17.047.032.008.172.045.03.008.174.043.028.007.178.042.025.006.182.041.02,0,.188.039.015,0,.193.038.01,0,.2.037h0q.309.055.619.1h0q.452.063.907.1h.016l.167.013.064,0,.117.008.115.007.066,0,.167.008h.014q.684.029,1.37,0l.142-.006.083,0,.119-.006.1-.006.1-.007.121-.009.081-.006.139-.012.063-.006.156-.015.047,0,.171-.019.032,0,.185-.023.018,0,.2-.027h.006q.828-.117,1.642-.316h0a16.829,16.829,0,0,0,2.814-.958l.153-.069.044-.02a16.958,16.958,0,0,0,2.362-1.319l.008-.005.156-.106.032-.022.048-.033h0a17.1,17.1,0,0,0,2.467-2.084l.14-.144h0a17.059,17.059,0,0,0,1.915-2.405Z" transform="translate(-20.375 -21.016)" fill="url(#linear-gradient)"/>
    <path id="Path_679" data-name="Path 679" d="M859.149,1423.679a17.01,17.01,0,0,0-1.248-1.465,8.3,8.3,0,0,1-1.411-5.069,17.169,17.169,0,0,0-1.721-.907,17.2,17.2,0,0,0-.493-1.884,17.249,17.249,0,0,0-1.861-.567,17.108,17.108,0,0,0-.838-1.758,17.168,17.168,0,0,0-1.936-.207,17.045,17.045,0,0,0-1.155-1.568,16.944,16.944,0,0,0-1.941.163,16.972,16.972,0,0,0-1.431-1.319,17.035,17.035,0,0,0-1.874.529,17.2,17.2,0,0,0-1.655-1.024,17.37,17.37,0,0,0-1.741.871,17.191,17.191,0,0,0-1.817-.7,16.987,16.987,0,0,0-1.546,1.183,16.907,16.907,0,0,0-1.917-.34,16.939,16.939,0,0,0-1.292,1.455q-.348-.014-.7-.015-.616,0-1.246.046a17.085,17.085,0,0,0-.993,1.673,17.1,17.1,0,0,0-1.906.4,17.209,17.209,0,0,0-.66,1.831,17.2,17.2,0,0,0-1.8.748,17.081,17.081,0,0,0-.3,1.923,8.426,8.426,0,0,1-2.95,4.382,17,17,0,0,0,.433,1.9,17.15,17.15,0,0,0-1.107,1.6,17.315,17.315,0,0,0,.783,1.782,17.275,17.275,0,0,0-.787,1.78,17.113,17.113,0,0,0,1.1,1.6,8.44,8.44,0,0,1,.881,5.209,17.082,17.082,0,0,0,1.622,1.077,17.2,17.2,0,0,0,.3,1.923,17.091,17.091,0,0,0,1.8.752,17.159,17.159,0,0,0,.656,1.832,17.227,17.227,0,0,0,1.905.4,17.113,17.113,0,0,0,.989,1.676q.648.049,1.283.048.334,0,.664-.013a17.019,17.019,0,0,0,1.289,1.458,17.025,17.025,0,0,0,1.918-.335,17.024,17.024,0,0,0,1.544,1.187,17.185,17.185,0,0,0,1.819-.693,17.409,17.409,0,0,0,1.738.875,17.193,17.193,0,0,0,1.657-1.02,17.016,17.016,0,0,0,1.873.534,16.916,16.916,0,0,0,1.434-1.316,16.948,16.948,0,0,0,1.941.168,16.986,16.986,0,0,0,1.159-1.566,17.122,17.122,0,0,0,1.935-.2,17.143,17.143,0,0,0,.842-1.756,17.184,17.184,0,0,0,1.862-.563,17.165,17.165,0,0,0,.5-1.882,8.41,8.41,0,0,1,3.379-4.059,17.029,17.029,0,0,0-.237-1.932,16.963,16.963,0,0,0,1.264-1.481,17.084,17.084,0,0,0-.62-1.9l.022-.035a17.485,17.485,0,0,0,.975-1.8,16.528,16.528,0,0,0-1-1.72A17.11,17.11,0,0,0,859.149,1423.679Zm-1.443,3.684a17.134,17.134,0,0,1-.3,3.208h0a16.844,16.844,0,0,1-.951,3.207q-.277.678-.612,1.331v0l-.093.179-.006.01c-.03.057-.06.113-.091.169l-.011.02-.088.158-.016.029-.084.147-.022.038-.08.136-.029.049-.075.125-.036.059-.07.113-.044.069-.064.1-.052.08-.059.09a17.066,17.066,0,0,1-1.915,2.405h0l-.14.144a17.077,17.077,0,0,1-2.467,2.084h0l-.048.033-.032.022-.156.106-.008.005a16.965,16.965,0,0,1-2.362,1.319l-.044.02-.153.069a16.831,16.831,0,0,1-2.814.958h0q-.813.2-1.642.316h-.006l-.2.027-.018,0-.185.023-.032,0-.171.019-.047,0-.156.015-.063.006-.139.012-.081.006-.121.009-.1.007-.1.006-.119.006-.083,0-.142.006q-.327.012-.654.012-.358,0-.715-.015h-.014l-.167-.008-.066,0-.115-.007-.117-.008-.064,0-.167-.013h-.016q-.455-.039-.907-.1h0q-.311-.043-.619-.1h0l-.2-.037-.01,0-.193-.038-.015,0-.188-.039-.02,0-.182-.041-.025-.006-.178-.042-.028-.007-.174-.043-.03-.008-.172-.045-.032-.008-.169-.047-.033-.009-.169-.049-.032-.009-.169-.051-.03-.009-.17-.054-.028-.009-.172-.057-.024-.008-.176-.06-.02-.007a16.96,16.96,0,0,1-5.624-3.307h0l-.013-.011-.078-.07-.093-.084-.052-.048-.12-.111-.023-.022a17.089,17.089,0,0,1-1.691-1.842h0l-.128-.164h0q-.24-.311-.465-.632l-.015-.022-.1-.141-.034-.05-.077-.114-.051-.078-.057-.088-.068-.106-.039-.061-.083-.133-.022-.035-.1-.16-.005-.009q-.258-.429-.489-.872h0l-.094-.182,0-.005a16.83,16.83,0,0,1-1.121-2.805q-.027-.091-.053-.182l-.006-.021q-.026-.091-.051-.182l-.005-.018q-.025-.092-.049-.185l0-.016q-.024-.093-.047-.187l0-.017c-.015-.062-.03-.124-.044-.186l0-.019q-.021-.092-.042-.184l0-.022c-.013-.06-.026-.12-.038-.181l-.006-.027q-.018-.088-.035-.176l-.006-.033c-.011-.057-.021-.113-.032-.17l-.007-.041c-.01-.054-.019-.108-.028-.162l-.008-.05q-.013-.077-.025-.153l-.009-.06q-.011-.072-.021-.144l-.01-.07c-.006-.044-.012-.089-.018-.133,0-.027-.007-.054-.011-.082s-.01-.081-.015-.122l-.011-.094q-.006-.055-.012-.109c0-.036-.008-.071-.011-.107s-.007-.064-.01-.1-.007-.08-.011-.12a17.336,17.336,0,0,1-.066-1.782c0-.018,0-.036,0-.054,0-.041,0-.081,0-.122s0-.078,0-.117l0-.059q0-.089.007-.178h0q.016-.356.048-.71h0q.018-.207.041-.413v-.009q.011-.1.023-.194l0-.021q.011-.091.024-.182l0-.032q.012-.086.025-.171l.006-.043q.012-.08.025-.161l.008-.052c.008-.05.017-.1.026-.151l.011-.061.026-.142.013-.069c.008-.045.017-.089.026-.134l.015-.076.026-.127.018-.082c.009-.04.018-.081.027-.121l.02-.085.027-.117.021-.088.028-.114.023-.091.029-.112.024-.091.031-.112.025-.089.032-.113.026-.089a16.875,16.875,0,0,1,1.241-3.046h0l.01-.02.046-.086.06-.112.035-.064.075-.134.023-.04.091-.159.007-.012a17.009,17.009,0,0,1,1.28-1.895l.03-.038.1-.133q.376-.471.784-.914l.025-.027.109-.117.051-.053.085-.089.077-.08.06-.061.1-.105.034-.034.133-.13.008-.007q.284-.275.581-.536h0l.147-.128.014-.012a17.032,17.032,0,0,1,2.007-1.484l.028-.018.139-.087.056-.034.114-.069.079-.047.022-.013h0a16.876,16.876,0,0,1,2.966-1.382l.116-.041.081-.027.12-.04.076-.025.125-.04.073-.023.128-.039.071-.021.13-.038.07-.02.132-.037.07-.019.131-.035.072-.019.13-.033.074-.018.128-.031.078-.018.125-.029.082-.018.121-.026.087-.018.116-.023.092-.018.111-.021.1-.018.105-.019.1-.018.1-.016.112-.017.092-.014.123-.017a17.15,17.15,0,0,1,2-.161h.026l.152,0h.357q.242,0,.484.012h0q.311.012.621.035h.017l.185.015.034,0,.168.016.051.005.151.016.066.008.137.016.08.01.122.016.093.013.109.016.105.016.1.015.115.019.088.015.123.022.08.014.13.025.073.014.135.027.068.014.138.03.065.014.14.032.064.015.143.034a16.838,16.838,0,0,1,3.072,1.076h0q.547.253,1.074.544l.023.013.151.085.047.027.126.073.071.042.1.059.1.058.073.045.121.075.047.03.146.093.022.014q.242.157.478.322h0a17.081,17.081,0,0,1,2.249,1.874l.005.005.133.134.031.032.038.039h0a17,17,0,0,1,3.581,5.469,16.828,16.828,0,0,1,.9,2.964l-.005-.006c.081.387.149.788.2,1.193a17.236,17.236,0,0,1,.146,2.229l.015-.028c0,.006,0,.012,0,.018v.039Z" transform="translate(-3.008 -3.018)" fill="url(#linear-gradient-2)"/>
    <path id="Path_680" data-name="Path 680" d="M856.819,1424.29l-.059-.117a16.377,16.377,0,0,0-.94-1.631,17.452,17.452,0,0,0,.583-1.812l.033-.127-.079-.1a17.425,17.425,0,0,0-1.174-1.389,17.336,17.336,0,0,0,.217-1.8l.009-.131-.1-.088a2.306,2.306,0,0,1-1.561-2.992l-.016-.13-.112-.068a17.5,17.5,0,0,0-1.624-.864,17.542,17.542,0,0,0-.473-1.779l-.04-.125-.123-.045a17.557,17.557,0,0,0-1.757-.543,17.5,17.5,0,0,0-.8-1.659l-.063-.115-.129-.021a17.446,17.446,0,0,0-1.829-.2,17.429,17.429,0,0,0-1.1-1.478l-.084-.1-.131,0a17.388,17.388,0,0,0-1.836.147,17.339,17.339,0,0,0-1.358-1.241l-.1-.083-.128.028a17.34,17.34,0,0,0-1.773.493,17.6,17.6,0,0,0-1.568-.962l-.115-.063-.12.052a17.747,17.747,0,0,0-1.648.817,17.544,17.544,0,0,0-1.72-.652l-.125-.04-.109.074a17.408,17.408,0,0,0-1.466,1.113,17.305,17.305,0,0,0-1.814-.314l-.13-.015-.092.093a17.31,17.31,0,0,0-1.227,1.371c-.191-.006-.384-.01-.576-.01-.419,0-.845.016-1.265.046l-.131.01-.073.109a17.448,17.448,0,0,0-.945,1.578,17.406,17.406,0,0,0-1.8.383l-.127.034-.051.121a17.581,17.581,0,0,0-.631,1.728,17.51,17.51,0,0,0-1.7.714l-.118.057-.028.128a17.405,17.405,0,0,0-.3,1.817,17.452,17.452,0,0,0-1.531,1.02l-.105.078,0,.131a17.368,17.368,0,0,0,.053,1.841,17.331,17.331,0,0,0-1.309,1.293l-.088.1.022.129a17.32,17.32,0,0,0,.4,1.8,17.506,17.506,0,0,0-1.04,1.518l-.068.112.046.123a17.692,17.692,0,0,0,.734,1.687,17.709,17.709,0,0,0-.737,1.685l-.046.123.068.112a17.433,17.433,0,0,0,1.037,1.52,17.319,17.319,0,0,0-.406,1.8l-.022.129.088.1a17.3,17.3,0,0,0,1.306,1.3,17.377,17.377,0,0,0-.057,1.841l0,.131.105.078a17.38,17.38,0,0,0,1.529,1.024,17.558,17.558,0,0,0,.291,1.817l.027.128.118.058a17.474,17.474,0,0,0,1.7.718,17.534,17.534,0,0,0,.627,1.729l.051.121.127.034a17.557,17.557,0,0,0,1.8.387,17.432,17.432,0,0,0,.941,1.58l.073.109.131.01c.433.033.872.049,1.3.049.179,0,.359,0,.537-.008a17.322,17.322,0,0,0,1.224,1.374l.092.093.13-.015a17.345,17.345,0,0,0,1.814-.31,17.429,17.429,0,0,0,1.464,1.116l.108.074.125-.04a17.5,17.5,0,0,0,1.722-.648,17.757,17.757,0,0,0,1.646.821l.12.052.115-.062a17.63,17.63,0,0,0,1.57-.958,17.342,17.342,0,0,0,1.773.5l.128.029.1-.083a17.307,17.307,0,0,0,1.361-1.239,17.307,17.307,0,0,0,1.835.151l.131,0,.084-.1a17.323,17.323,0,0,0,1.1-1.476,17.5,17.5,0,0,0,1.829-.2l.129-.021.063-.115a17.49,17.49,0,0,0,.8-1.657,17.53,17.53,0,0,0,1.758-.539l.123-.045.041-.125a17.558,17.558,0,0,0,.477-1.777,17.491,17.491,0,0,0,1.626-.861l.112-.067.016-.13a2.306,2.306,0,0,1,1.568-2.989l.1-.087-.009-.131a17.339,17.339,0,0,0-.217-1.828,17.372,17.372,0,0,0,1.19-1.405l.079-.1-.033-.127a17.45,17.45,0,0,0-.58-1.807,18.1,18.1,0,0,0,.94-1.746Zm-1.275,1.8-.022.035a17.084,17.084,0,0,1,.62,1.9,16.963,16.963,0,0,1-1.264,1.481,8.421,8.421,0,0,0-1.419,5.088,17.151,17.151,0,0,1-1.724.9,17.165,17.165,0,0,1-.5,1.882,17.188,17.188,0,0,1-1.862.563,17.156,17.156,0,0,1-.842,1.756,17.122,17.122,0,0,1-1.935.2,16.986,16.986,0,0,1-1.159,1.566,16.948,16.948,0,0,1-1.941-.168,16.906,16.906,0,0,1-1.434,1.316,17.011,17.011,0,0,1-1.873-.534,17.2,17.2,0,0,1-1.657,1.02,17.409,17.409,0,0,1-1.738-.875,17.185,17.185,0,0,1-1.819.693,17.024,17.024,0,0,1-1.544-1.187,17.025,17.025,0,0,1-1.918.335,17.019,17.019,0,0,1-1.289-1.458q-.33.013-.664.013-.634,0-1.283-.048a17.113,17.113,0,0,1-.989-1.676,17.227,17.227,0,0,1-1.905-.4,17.159,17.159,0,0,1-.656-1.832,17.091,17.091,0,0,1-1.8-.752,17.2,17.2,0,0,1-.3-1.923,8.428,8.428,0,0,0-2.94-4.389,16.933,16.933,0,0,1,.437-1.9,17.113,17.113,0,0,1-1.1-1.6,17.275,17.275,0,0,1,.787-1.78,17.3,17.3,0,0,1-.783-1.782,17.15,17.15,0,0,1,1.107-1.6,17,17,0,0,1-.433-1.9,16.979,16.979,0,0,1,1.39-1.362,8.407,8.407,0,0,0,1.865-4.943,17.206,17.206,0,0,1,1.8-.748,17.2,17.2,0,0,1,.66-1.831,17.1,17.1,0,0,1,1.906-.4,17.085,17.085,0,0,1,.993-1.673q.629-.046,1.246-.046.353,0,.7.015a16.95,16.95,0,0,1,1.292-1.455,16.911,16.911,0,0,1,1.917.34,16.978,16.978,0,0,1,1.546-1.183,17.191,17.191,0,0,1,1.817.7,17.37,17.37,0,0,1,1.741-.871,17.2,17.2,0,0,1,1.655,1.024,17.035,17.035,0,0,1,1.874-.529,16.972,16.972,0,0,1,1.431,1.319,16.944,16.944,0,0,1,1.941-.163,17.045,17.045,0,0,1,1.155,1.568,17.169,17.169,0,0,1,1.936.207,17.1,17.1,0,0,1,.838,1.758,17.249,17.249,0,0,1,1.861.567,17.2,17.2,0,0,1,.493,1.884,8.408,8.408,0,0,0,3.37,4.067,16.957,16.957,0,0,1-.238,1.909,16.989,16.989,0,0,1,1.249,1.465,17.1,17.1,0,0,1-.623,1.912,16.528,16.528,0,0,1,1,1.72A17.485,17.485,0,0,1,855.544,1426.09Z" fill="url(#linear-gradient-3)"/>
    <g id="Group_561" data-name="Group 561" transform="translate(820.751 1407.372)">
      <path id="Path_681" data-name="Path 681" d="M874.928,1443.133c-.055-.406-.123-.806-.2-1.193l.005.006a16.863,16.863,0,0,0-2.452-5.92,17.063,17.063,0,0,0-2.024-2.513h0l-.038-.039-.031-.032-.133-.134-.005-.005a17.085,17.085,0,0,0-2.249-1.874h0q-.236-.165-.478-.322l-.022-.014-.146-.093-.047-.03-.121-.075-.073-.045-.1-.058-.1-.059-.071-.042-.126-.073-.047-.027-.151-.085-.023-.013q-.527-.291-1.074-.544h0a16.838,16.838,0,0,0-3.072-1.076l-.143-.034-.064-.015-.14-.032-.065-.014-.138-.03-.068-.014-.135-.027-.073-.014-.13-.025-.08-.014-.124-.022-.088-.015-.115-.019-.1-.015-.105-.016-.109-.016-.094-.013-.122-.016-.08-.01-.137-.016-.066-.008-.151-.016-.051-.005-.168-.016-.034,0-.185-.015h-.017q-.31-.023-.621-.035h0q-.242-.009-.484-.012H857.9l-.152,0h-.026a17.15,17.15,0,0,0-2,.161l-.123.017-.092.014-.112.017-.1.016-.1.018-.105.019-.1.018-.111.021-.092.018-.116.023-.087.018-.121.026-.082.018-.125.029-.078.018-.128.031-.074.018-.13.033-.072.019-.131.035-.07.019-.132.037-.07.02-.13.038-.071.021-.128.039-.073.023-.125.04-.076.025-.12.04-.081.027-.116.041a16.876,16.876,0,0,0-2.966,1.382h0l-.022.013-.079.047-.114.069-.056.034-.139.087-.028.018a17.042,17.042,0,0,0-2.007,1.484l-.014.012-.147.128h0q-.3.262-.581.536l-.008.007-.133.13-.034.034-.1.105-.06.061-.077.08-.085.089-.051.053-.109.117-.025.027q-.408.443-.784.914l-.1.133-.03.038a17.009,17.009,0,0,0-1.28,1.895l-.007.013-.091.159-.023.04-.075.134-.035.064-.06.112-.046.086-.01.02h0a16.875,16.875,0,0,0-1.241,3.046l-.026.089-.032.113-.025.089-.031.112-.024.091-.029.112-.023.091-.028.114-.021.088-.027.117-.02.085-.027.121-.018.082-.026.127-.015.076q-.013.067-.026.134l-.013.069c-.009.047-.017.095-.026.142l-.011.061c-.009.05-.017.1-.026.151l-.008.052q-.013.08-.025.161l-.006.043q-.013.085-.025.171l0,.032q-.013.091-.024.182l0,.021q-.012.1-.023.194v.009q-.023.207-.041.413h0c-.021.236-.037.473-.048.71h0q0,.089-.007.178l0,.059c0,.039,0,.078,0,.117s0,.081,0,.122c0,.018,0,.036,0,.054a17.336,17.336,0,0,0,.066,1.782c0,.04.007.08.011.12s.006.064.01.1l.011.107c0,.037.008.073.012.109l.011.094c0,.041.01.081.015.122l.011.082c.006.044.012.089.018.133l.01.07q.01.072.021.144l.009.06q.012.077.025.153l.008.05c.009.054.018.108.028.162l.007.041c.01.057.021.113.032.17l.006.033q.017.088.035.176l.006.027c.012.06.025.12.038.181l0,.022q.02.092.042.184l0,.019c.015.062.029.124.044.186l0,.017c.015.062.031.125.047.187l0,.016q.024.093.049.185l.005.018q.025.091.051.182l.006.021q.026.091.053.182a16.836,16.836,0,0,0,1.121,2.805l0,.005.094.182h0q.232.443.489.872l.005.009.1.16.022.035.084.133.039.061.068.106.057.088.051.078.077.114.034.05.1.141.015.022q.225.322.465.632h0l.128.164h0a17.1,17.1,0,0,0,1.691,1.842l.023.022.12.111.052.048.093.084.078.07.012.011h0a16.96,16.96,0,0,0,5.624,3.307l.02.007.176.06.024.008.172.057.028.009.17.054.03.009.169.051.032.009.169.049.033.009.17.047.032.008.172.045.03.008.174.043.028.007.178.042.025.006.182.041.02,0,.188.039.015,0,.193.038.01,0,.2.037h0q.309.054.619.1h0q.452.063.907.1h.016l.167.013.064,0,.118.008.115.007.066,0,.167.008h.014q.357.015.715.015.327,0,.654-.012l.142-.006.083,0,.119-.006.1-.006.1-.007.121-.009.081-.006.139-.012.063-.006.156-.015.047,0,.171-.019.032,0,.185-.023.018,0,.2-.027h.006q.828-.117,1.642-.316h0a16.829,16.829,0,0,0,2.814-.958l.153-.069.044-.02a16.978,16.978,0,0,0,2.362-1.319l.008-.005.156-.106.032-.022.048-.033h0a17.08,17.08,0,0,0,2.467-2.084l.14-.144h0a17.066,17.066,0,0,0,1.915-2.405l.059-.09.052-.08.064-.1.044-.069.07-.113.036-.059.075-.125.029-.049.08-.136.022-.039.084-.147.016-.029.087-.158.011-.02c.031-.056.061-.112.091-.169l.006-.01.093-.179v0q.335-.652.612-1.331a16.848,16.848,0,0,0,.951-3.207h0a17.087,17.087,0,0,0,.158-5.437Zm-.725,5.249-.015.076a16.278,16.278,0,0,1-.918,3.094c-.177.434-.376.866-.59,1.283h0l-.09.173h0l-.006.01h0l-.087.161-.005.009-.005.01-.084.152-.007.012-.009.016-.081.142-.007.013-.014.025-.077.131-.009.014-.02.033-.073.12-.005.008-.03.049-.068.109-.042.067-.062.1-.05.077-.057.087a16.506,16.506,0,0,1-1.849,2.322l0,0-.132.137a16.507,16.507,0,0,1-2.381,2.012l-.1.071-.125.085h0l0,0h0a16.4,16.4,0,0,1-2.28,1.273l-.021.009-.021.01-.147.066a16.286,16.286,0,0,1-2.652.909l-.063.015c-.519.127-1.052.23-1.585.305h-.006l-.189.026h-.018l-.178.022-.017,0-.014,0-.165.018-.046,0-.15.015-.061.005-.134.011-.077.006h0l-.116.009-.1.006-.1.006-.115.006-.08,0-.138.006c-.21.008-.423.012-.632.012-.23,0-.462,0-.69-.014h-.014l-.16-.008h-.019l-.046,0-.11-.007-.114-.008-.048,0h-.014l-.161-.013H856.7c-.272-.023-.549-.054-.825-.091l-.05-.007c-.2-.028-.4-.059-.6-.094h0l-.192-.035h-.01l-.187-.037h0l-.01,0h0l-.182-.038-.013,0h-.005l-.175-.039-.025-.006-.171-.04-.013,0-.014,0-.169-.042-.014,0-.015,0-.165-.043-.016,0-.015,0-.164-.045-.019-.006-.013,0-.162-.047-.025-.008-.006,0-.163-.049-.03-.009-.165-.052-.017-.005-.009,0-.166-.055-.011,0-.012,0-.169-.058-.02-.007a16.369,16.369,0,0,1-5.427-3.192l-.087-.077h0l-.09-.082-.05-.046-.116-.108-.009-.008-.014-.013a16.548,16.548,0,0,1-1.63-1.776l0,0-.123-.158h0c-.155-.2-.306-.406-.45-.611l-.008-.012-.006-.009-.094-.135-.033-.048-.074-.11-.05-.076-.055-.084-.066-.1,0-.008-.033-.051-.08-.129-.009-.015-.011-.018-.094-.155h0l0-.006c-.156-.261-.308-.53-.452-.8l-.021-.039-.091-.176h0l0,0h0a16.307,16.307,0,0,1-1.081-2.707c-.018-.06-.035-.119-.051-.176l-.006-.02c-.017-.06-.034-.119-.049-.176l0-.008,0-.009c-.017-.063-.032-.121-.047-.179l0-.007,0-.009c-.016-.062-.031-.122-.045-.18l0-.007,0-.009c-.015-.061-.029-.121-.043-.18h0l0-.013v0c-.014-.059-.027-.119-.041-.179l0-.009,0-.011c-.013-.06-.026-.119-.037-.175l0-.016,0-.01c-.012-.06-.023-.115-.034-.171l0-.017,0-.015c-.01-.054-.021-.109-.03-.163l0-.023,0-.018c-.009-.052-.018-.1-.027-.157l-.005-.031,0-.016c-.008-.049-.016-.1-.024-.148l-.009-.058q-.011-.069-.021-.139l-.008-.057v-.011l-.018-.128-.01-.078q-.008-.059-.015-.118c0-.03-.007-.06-.011-.09s-.008-.07-.012-.106-.007-.069-.011-.1-.006-.062-.009-.093-.007-.077-.011-.116a16.766,16.766,0,0,1-.063-1.72v-.053c0-.039,0-.078,0-.117v0c0-.037,0-.074,0-.111l0-.046v-.011c0-.061,0-.109.006-.153v-.018c.01-.223.026-.454.046-.686h0c.011-.131.025-.266.04-.4v-.009c.007-.061.015-.124.022-.187v-.02c.008-.061.015-.12.023-.177l0-.031c.008-.055.016-.11.024-.165l0-.027,0-.014c.008-.052.016-.1.024-.156l.008-.05c.008-.049.016-.1.025-.146l.007-.04,0-.018c.008-.046.016-.091.025-.137l.013-.067q.012-.064.025-.129l.015-.073.026-.123.016-.077v0l.026-.117.016-.072,0-.011c.009-.038.017-.076.027-.113l.021-.085.027-.109.022-.088.028-.108.023-.087.029-.108.024-.086.031-.109.025-.086a16.3,16.3,0,0,1,1.2-2.939l.055-.105.057-.1.034-.062.072-.13.005-.009.016-.029.088-.153,0-.008,0,0a16.458,16.458,0,0,1,1.236-1.829l.015-.019.014-.017.1-.128c.242-.3.5-.6.757-.882l.017-.018.007-.008.105-.113.049-.052.082-.085.075-.077.057-.059.1-.1,0,0,.028-.028.128-.126,0,0,0,0c.172-.166.351-.332.534-.493l.028-.024.143-.124.007-.006.005,0h0a16.515,16.515,0,0,1,1.937-1.432l.025-.016,0,0,.135-.084.051-.031,0,0,.106-.064.1-.06a16.326,16.326,0,0,1,2.862-1.333l.112-.039.071-.024.007,0,.115-.039.073-.024.121-.039.07-.022.124-.038.068-.021.126-.037.059-.017.009,0,.127-.036.059-.016.009,0,.127-.034.064-.017h0l.126-.032.072-.018.124-.03.075-.018.121-.027.079-.017.117-.025.084-.017.112-.023.089-.017.107-.02.1-.017.1-.018.1-.017.1-.016.109-.017.089-.013.119-.017a16.606,16.606,0,0,1,1.927-.155h.027l.146,0h.345c.128,0,.261,0,.4.009l.07,0c.2.007.4.019.6.033h.017l.178.014.019,0h.015l.162.015.042,0h.007l.146.015.057.006h.007l.131.016.078.01.118.015.09.012.105.015.1.015.094.015.111.018.085.014.119.021.077.014.127.024.07.013.13.026.014,0,.052.011.134.029.063.014.134.031.013,0,.049.011.138.033a16.267,16.267,0,0,1,2.964,1.038l.048.022c.335.156.667.325.987.5l.011.006.012.007.146.082.037.021.009.005.121.07.069.041.1.057.093.056.071.043.117.073.011.007.035.022.141.09.02.013c.132.086.267.176.4.268l.06.042a16.542,16.542,0,0,1,2.171,1.809l0,0,0,0,.109.109.087.089a16.406,16.406,0,0,1,3.456,5.278,16.263,16.263,0,0,1,.766,2.413l.093.443c.077.365.143.752.2,1.149a16.5,16.5,0,0,1-.138,5.171Z" transform="translate(-841.126 -1428.388)" fill="url(#linear-gradient-4)"/>
    </g>
  </g>
</svg>
