<svg xmlns="http://www.w3.org/2000/svg" width="26" height="26" viewBox="0 0 26 26">
  <g id="Group_546" data-name="Group 546" transform="translate(-196 -182)">
    <g id="Ellipse_102" data-name="Ellipse 102" transform="translate(196 182)" fill="#656161" stroke="#000" stroke-width="2">
      <circle cx="13" cy="13" r="13" stroke="none"/>
      <circle cx="13" cy="13" r="12" fill="none"/>
    </g>
    <g id="middle_inverted" transform="translate(202.19 187.2)">
      <g id="Group_356" data-name="Group 356" transform="translate(-0.19 -0.201)">
        <g id="Group_355" data-name="Group 355" transform="translate(0 0)">
          <rect id="ee-background" width="15" height="15" transform="translate(0 0)" fill="rgba(255,255,255,0)"/>
          <g id="Group_354" data-name="Group 354" transform="translate(0.161 0.17)">
            <path id="Path_360" data-name="Path 360" d="M24.187,14.8l-2.212,2.21,0,4.989H17.012L14.8,24.209h9.382ZM17,12.056l2.219-2.21H9.837v9.378l2.208-2.2V12.056H17Z" transform="translate(-9.837 -9.846)" fill="#ecf0f1" fill-rule="evenodd" opacity="0.5"/>
            <path id="Path_361" data-name="Path 361" d="M21.427,9.846l-11.59,11.6v2.762H12.6l11.59-11.6V9.846Z" transform="translate(-9.837 -9.846)" fill="#ecf0f1"/>
            <path id="Path_362" data-name="Path 362" d="M15.44,29.535h0l-.037-.262" transform="translate(-14.153 -24.913)" fill="#6db7f6"/>
            <path id="Path_363" data-name="Path 363" d="M14.9,22.266h0" transform="translate(-13.766 -19.479)" fill="#6db7f6"/>
            <path id="Path_364" data-name="Path 364" d="M17.569,12.591h0" transform="translate(-15.834 -11.975)" fill="#6db7f6"/>
            <path id="Path_365" data-name="Path 365" d="M21.569,15.427h0" transform="translate(-18.936 -14.174)" fill="#6db7f6"/>
            <path id="Path_366" data-name="Path 366" d="M29.834,57.748l-.6-.449" transform="translate(-24.882 -46.649)" fill="#6db7f6"/>
            <path id="Path_367" data-name="Path 367" d="M25.4,61.3h0" transform="translate(-21.909 -49.754)" fill="#6db7f6"/>
            <path id="Path_368" data-name="Path 368" d="M34.9,44.787h0" transform="translate(-29.277 -36.946)" fill="#6db7f6"/>
          </g>
        </g>
      </g>
    </g>
  </g>
</svg>
