<svg id="items_inverted" xmlns="http://www.w3.org/2000/svg" width="18.294" height="13.617" viewBox="0 0 18.294 13.617">
  <g id="Group_484" data-name="Group 484" transform="translate(0 0)">
    <rect id="ee-background" width="10.903" height="10.903" transform="translate(7.369 2.714)" fill="rgba(255,255,255,0)"/>
    <g id="Group_482" data-name="Group 482" transform="translate(1.528 5.358)">
      <g id="Layer_2" transform="translate(0 0)">
        <g id="Layer_1-2">
          <path id="Path_618" data-name="Path 618" d="M392.284,5.7c.064.661,3.679,3.026,3.789,4.958s-2.877,2.762-5.45,3.129-5.427-.606-5.45-3.129C385.148,8.011,392.22,5.043,392.284,5.7Z" transform="translate(-379.31 -5.61)" fill="#bdc3c7"/>
          <path id="Path_619" data-name="Path 619" d="M276.967,17.283" transform="translate(-276.967 -14.786)" fill="#bdc3c7" stroke="#000" stroke-width="0"/>
        </g>
      </g>
    </g>
    <g id="Group_483" data-name="Group 483" transform="translate(0 0)">
      <g id="g-3">
        <g id="g-4" transform="translate(0)">
          <path id="Path_620" data-name="Path 620" d="M185.791,16.162c.443-.826,4.8.473,2.3,2.551s-.372,1.83-1.367,1.749a5.923,5.923,0,0,1-3.651-2.68C182.184,16.312,185.349,16.987,185.791,16.162Z" transform="translate(-173.22 -13.2)" fill="#bdc3c7"/>
          <path id="Path_621" data-name="Path 621" transform="translate(0)" fill="#bdc3c7" stroke="#000" stroke-width="0"/>
          <path id="Path_622" data-name="Path 622" d="M213.551,22.582h0" transform="translate(-198.635 -18.735)" fill="#bdc3c7" stroke="#000" stroke-width="0"/>
          <path id="Path_623" data-name="Path 623" d="M205.63,27.292" transform="translate(-192.063 -22.642)" fill="#bdc3c7" stroke="#000" stroke-width="0"/>
        </g>
      </g>
    </g>
  </g>
</svg>
