<svg xmlns="http://www.w3.org/2000/svg" width="15.074" height="15.192" viewBox="0 0 15.074 15.192">
  <g id="middle_inverted" transform="translate(0 -0.007)">
    <g id="Group_509" data-name="Group 509">
      <g id="Group_508" data-name="Group 508">
        <rect id="ee-background" width="15" height="15" transform="translate(0 0.199)" fill="rgba(255,255,255,0)"/>
        <g id="Group_507" data-name="Group 507" transform="translate(0.007 0.007)">
          <path id="Path_652" data-name="Path 652" d="M24.9,15.048l-2.323,2.32,0,5.239H17.371l-2.318,2.32H24.9Zm-7.546-2.882,2.33-2.32H9.837v9.847l2.318-2.307v-5.22h5.2Z" transform="translate(-9.837 -9.846)" fill="#ecf0f1" fill-rule="evenodd" opacity="0.5"/>
          <path id="Path_653" data-name="Path 653" d="M22.007,9.846,9.837,22.027v2.9h2.9L24.9,12.746v-2.9Z" transform="translate(-9.837 -9.846)" fill="#ecf0f1"/>
          <path id="Path_654" data-name="Path 654" d="M15.442,29.548h0l-.039-.275" transform="translate(-14.091 -24.695)" fill="#6db7f6" stroke="#000" stroke-width="0"/>
          <path id="Path_655" data-name="Path 655" d="M14.9,22.266h0" transform="translate(-13.709 -19.34)" fill="#6db7f6" stroke="#000" stroke-width="0"/>
          <path id="Path_656" data-name="Path 656" d="M17.569,12.591h0" transform="translate(-15.747 -11.944)" fill="#6db7f6" stroke="#000" stroke-width="0"/>
          <path id="Path_657" data-name="Path 657" d="M21.569,15.427h0" transform="translate(-18.804 -14.112)" fill="#6db7f6" stroke="#000" stroke-width="0"/>
          <path id="Path_658" data-name="Path 658" d="M29.864,57.77l-.628-.472" transform="translate(-24.665 -46.117)" fill="#6db7f6" stroke="#000" stroke-width="0"/>
          <path id="Path_659" data-name="Path 659" d="M25.4,61.3h0" transform="translate(-21.735 -49.177)" fill="#6db7f6" stroke="#000" stroke-width="0"/>
          <path id="Path_660" data-name="Path 660" d="M34.9,44.787h0" transform="translate(-28.996 -36.554)" fill="#6db7f6" stroke="#000" stroke-width="0"/>
        </g>
      </g>
    </g>
  </g>
</svg>
