<svg xmlns="http://www.w3.org/2000/svg" width="9.087" height="12.316" viewBox="0 0 9.087 12.316">
  <path id="Union_1" data-name="Union 1" d="M-1242.958,12.109l-3.834-3.835a.712.712,0,0,1-.01-1l.01-.008,2.169-2.17,2.151-5.1,2.21,5.137,2.142,2.142a.713.713,0,0,1,.009,1l-.009.008-3.835,3.835a.766.766,0,0,1-.506.2A.7.7,0,0,1-1242.958,12.109Zm-3.067-4.5a.175.175,0,0,0-.008.255l3.451,3.451a.172.172,0,0,0,.247,0l3.451-3.451a.172.172,0,0,0,0-.247l-1.767-1.767-1.82,1.8-1.81-1.784Zm4.362,1.3a.511.511,0,0,1,.11-.7.512.512,0,0,1,.7-.11.514.514,0,0,1-.11.7.656.656,0,0,1-.447.205A.347.347,0,0,1-1241.663,8.913Zm-2.274-.109a.513.513,0,0,1-.11-.7.513.513,0,0,1,.7.11.512.512,0,0,1,.109.7.347.347,0,0,1-.251.1A.656.656,0,0,1-1243.938,8.8Z" transform="translate(1247)" fill="#bdc3c7"/>
</svg>
