<svg id="score_inverted" xmlns="http://www.w3.org/2000/svg" width="11.578" height="11.125" viewBox="0 0 11.578 11.125">
  <g id="Group_503" data-name="Group 503" transform="translate(0 0)">
    <path id="Path_649" data-name="Path 649" d="M23.139,25.31,20.8,22.973l2.341-2.336,2.341,2.336V25.31ZM24.676,18.7l-1.159,1.156-1.253-1.227L16.918,25.31H14.577V22.973l6.693-5.357-1.277-1.274-3.524,3.516-1.088-1.109,1.23-1.227L14.624,15.54l1.088-1.109L17.7,16.413l1.23-1.227,1.088,1.086,1.135-1.133,1.23,1.227,1.963-1.959,1.088,1.109L23.47,17.475Z" transform="translate(-14.577 -14.407)" fill="#bdc3c7" fill-rule="evenodd"/>
    <path id="Path_650" data-name="Path 650" d="M46.389,95.379" transform="translate(-42.299 -89.291)" fill="#b2b2b2" stroke="#000" stroke-width="0"/>
    <path id="Path_651" data-name="Path 651" d="M104.788,162.552" transform="translate(-93.209 -151.426)" fill="#bdc3c7" stroke="#000" stroke-width="0"/>
  </g>
</svg>
