<svg id="support_inverted" xmlns="http://www.w3.org/2000/svg" width="20.47" height="16.858" viewBox="0 0 20.47 16.858">
  <g id="Group_512" data-name="Group 512" transform="translate(0 0)">
    <g id="Group_511" data-name="Group 511">
      <g id="Group_510" data-name="Group 510">
        <path id="Path_661" data-name="Path 661" d="M15.654,11.668c2.128,0,4.817-2.408,4.817-2.408H13.847l-1.806,1.806,1.2,4.214,3.01-1.2L14.45,11.668ZM13.245,6.851l-.706-1.2H7.864l-.639,1.2,3.01,3.612Zm-3.01,5.419-.6-.6L7.827,20.7,10.235,22.5,12.643,20.7l-1.806-9.031ZM6.623,9.259H0s2.688,2.408,4.817,2.408h1.2L4.214,14.076l3.01,1.2,1.2-4.214Z" transform="translate(0 -5.647)" fill="#ecf0f1" fill-rule="evenodd"/>
      </g>
      <path id="Path_662" data-name="Path 662" d="M30.761,36.938" transform="translate(-20.922 -26.93)" fill="#6db7f6" stroke="#000" stroke-width="0"/>
    </g>
  </g>
</svg>
